<svg xmlns="http://www.w3.org/2000/svg" viewBox="0 0 269.24 177.52"><defs><style>.cls-1{fill:none;stroke:#000;stroke-miterlimit:10;}.cls-2{font-size:18.85px;font-family:MyriadPro-Regular, Myriad Pro;}</style></defs><title>logo</title><g id="Capa_3" data-name="Capa 3"><line class="cls-1" x1="117.91" y1="129.42" x2="224.76" y2="83.52"/><line class="cls-1" x1="194.12" y1="74.45" x2="194.12" y2="74.45"/><line class="cls-1" x1="108.94" y1="177.06" x2="215.79" y2="131.15"/><line class="cls-1" x1="194.15" y1="116.08" x2="194.15" y2="116.08"/><line class="cls-1" x1="57.11" y1="155.46" x2="108.94" y2="177.06"/><line class="cls-1" x1="215.26" y1="87.77" x2="215.3" y2="131.16"/><line class="cls-1" x1="108.91" y1="133.41" x2="108.94" y2="177.06"/><line class="cls-1" x1="161.85" y1="69.07" x2="268.71" y2="23.16"/><line class="cls-1" x1="238.06" y1="14.09" x2="238.06" y2="14.09"/><line class="cls-1" x1="107.37" y1="46.37" x2="214.22" y2="0.46"/><line class="cls-1" x1="107.37" y1="46.37" x2="161.85" y2="69.07"/><line class="cls-1" x1="214.22" y1="0.46" x2="268.71" y2="23.16"/><line class="cls-1" x1="161.88" y1="110.7" x2="268.74" y2="64.8"/><line class="cls-1" x1="238.09" y1="55.73" x2="238.09" y2="55.73"/><line class="cls-1" x1="268.71" y1="23.16" x2="268.74" y2="64.8"/><line class="cls-1" x1="161.85" y1="69.07" x2="161.88" y2="110.7"/><line class="cls-1" x1="54.98" y1="114.72" x2="161.84" y2="68.82"/><line class="cls-1" x1="131.19" y1="59.75" x2="131.19" y2="59.75"/><line class="cls-1" x1="0.5" y1="92.02" x2="107.35" y2="46.12"/><line class="cls-1" x1="0.5" y1="92.02" x2="54.98" y2="114.72"/><line class="cls-1" x1="107.35" y1="46.12" x2="161.84" y2="68.82"/><line class="cls-1" x1="55.02" y1="156.36" x2="161.87" y2="110.45"/><line class="cls-1" x1="131.22" y1="101.38" x2="131.22" y2="101.38"/><line class="cls-1" x1="0.53" y1="133.66" x2="55.02" y2="156.36"/><line class="cls-1" x1="161.84" y1="68.82" x2="161.87" y2="110.45"/><line class="cls-1" x1="54.98" y1="114.72" x2="55.02" y2="156.36"/><line class="cls-1" x1="0.5" y1="92.02" x2="0.53" y2="133.66"/><text class="cls-2" transform="matrix(1.19, -0.49, -0.02, 1, 135.5, 154.1)">HTML</text><text class="cls-2" transform="matrix(1.19, -0.49, -0.02, 1, 94.52, 123.6)">CSS</text><text class="cls-2" transform="matrix(1.19, -0.49, -0.02, 1, 211.2, 77.38)">JS</text></g></svg>